# xmcd
#
# Track frame offsets: 
#        150
#        41670
#        94547
#        137085
#        160132
#        205602
#
# Disc length: 3786 seconds
#
# Revision: 0
# Processed by: cddbd v1.5.2PL0 Copyright (c) Steve Scherf et al.
# Submitted via: ExactAudioCopy v1.0b3
#
DISCID=450ec806
DTITLE=Ad van Gerven - Hatching
DYEAR=1992
DGENRE=Electronic
TTITLE0=Imaginary Voyages 1 and 2
TTITLE1=Memories
TTITLE2=Moonpower
TTITLE3=Without Prejudice
TTITLE4=Imaginary Voyages 3 and 4
TTITLE5=Vodewilafgewo - Moonpower (Take 2)
EXTD=
EXTT0=
EXTT1=
EXTT2=
EXTT3=
EXTT4=
EXTT5=
PLAYORDER=
